<svg width="100" height="100" viewBox="0 0 100 100" fill="none" xmlns="http://www.w3.org/2000/svg">
<path fill-rule="evenodd" clip-rule="evenodd" d="M41.1584 4.23196C37.572 4.90651 32.9812 7.11397 29.2512 9.95752C28.5819 10.4677 27.431 11.2703 26.6935 11.7411C23.2023 13.9696 21.4976 18.3789 22.6233 22.2683C22.7783 22.8039 22.8859 23.2569 22.8625 23.2751C22.8388 23.293 22.4284 23.4064 21.9504 23.5272C16.0335 25.0204 12.0001 31.8801 13.325 38.1972L13.5538 39.2874L12.6612 40.5066C9.61208 44.6706 9.15299 49.8291 11.4399 54.2271L12.1199 55.5349L11.6158 56.3834C8.44291 61.7224 10.2245 69.7252 15.3291 73.0632L16.0792 73.5538L16.1821 75.7249C16.4602 81.5872 19.7315 86.4977 24.703 88.5156C25.3882 88.7938 25.7511 89.1307 26.6674 90.3386C32.5329 98.0709 43.9814 97.6459 48.9807 89.51C49.9275 87.9692 49.7721 87.9692 50.7189 89.51C55.7182 97.6459 67.1667 98.0709 73.0322 90.3386C73.9485 89.1307 74.3114 88.7938 74.9967 88.5156C79.9601 86.501 83.2399 81.5777 83.5175 75.7249L83.6204 73.5538L84.3705 73.0632C89.4751 69.7252 91.2567 61.7224 88.0838 56.3834L87.5797 55.5349L88.2597 54.2271C90.5466 49.8291 90.0875 44.6706 87.0384 40.5066L86.1458 39.2874L86.3746 38.1972C87.6995 31.8801 83.6662 25.0204 77.7492 23.5272C77.2712 23.4064 76.8608 23.293 76.8371 23.2751C76.8137 23.2569 76.9213 22.8039 77.0763 22.2683C78.202 18.3789 76.4973 13.9696 73.0061 11.7411C72.2686 11.2703 71.1177 10.4677 70.4484 9.95752C62.2554 3.7114 54.2289 2.2863 50.5295 6.42127L49.8498 7.18081L49.1701 6.42127C47.2742 4.30222 44.6289 3.57933 41.1584 4.23196ZM45.748 7.4507C46.6665 7.91681 47.5575 8.87185 48.0032 9.86822C48.463 10.8957 48.7008 31.2541 48.2499 30.9838C48.126 30.9094 47.8259 30.7068 47.5831 30.5334C45.7395 29.217 42.8204 29.1259 42.4002 30.3715C42.0178 31.5055 42.5607 32.1069 44.2708 32.4436C46.1353 32.8109 47.2386 33.6657 47.9726 35.3121L48.3723 36.2084L48.4197 54.626L48.4672 73.0436L47.2029 71.7657C43.907 68.4343 40.0951 67.0773 39.4453 69.0039C39.0952 70.0421 39.4867 70.5627 41.0736 71.1688C47.3354 73.5604 50.1097 80.5725 47.2234 86.7126C43.5452 94.5373 32.8529 95.0379 28.3076 87.5983C27.6921 86.591 27.5042 86.4199 26.65 86.0897C21.5341 84.111 18.9105 80.1079 19.1309 74.6168C19.234 72.0485 19.1415 71.8272 17.632 71.0365C13.6746 68.9637 11.7684 63.2052 13.6245 58.9299L14.0869 57.8649L14.8897 58.4699C17.637 60.5403 22.0731 61.6135 23.175 60.4743C24.0702 59.5491 23.3994 58.0435 22.0891 58.0374C14.0217 57.9991 9.9726 47.9496 15.5109 41.711C16.7679 40.2952 16.8383 40.0385 16.3825 38.528C14.2482 31.4562 20.6055 24.4734 27.4901 26.3271C31.3913 27.3773 34.5211 31.3182 34.5529 35.2201C34.5641 36.5739 35.4186 37.3672 36.4614 36.9915C38.3313 36.3177 37.3158 31.1067 34.6447 27.6706C32.6808 25.144 30.3077 23.8163 26.4138 23.0657C25.2317 22.8379 24.8041 18.9947 25.7472 17.0717C28.0356 12.4045 34.2546 12.0678 36.7536 16.4757C37.7145 18.1707 39.773 18.0656 39.7662 16.3219C39.76 14.7137 35.7424 10.7826 34.1053 10.7826C32.5577 10.7826 37.5485 8.16298 40.6201 7.36301C42.3486 6.91272 44.7695 6.95422 45.748 7.4507ZM58.9994 7.36229C62.0611 8.12111 67.193 10.7826 65.5943 10.7826C63.9572 10.7826 59.9397 14.7137 59.9334 16.3219C59.9266 18.0656 61.9851 18.1707 62.946 16.4757C65.445 12.0678 71.664 12.4045 73.9525 17.0717C74.8955 18.9947 74.4679 22.8379 73.2858 23.0657C69.3919 23.8163 67.0188 25.144 65.0549 27.6706C62.3839 31.1067 61.3684 36.3177 63.2382 36.9915C64.281 37.3672 65.1356 36.5739 65.1467 35.2201C65.1785 31.3182 68.3083 27.3773 72.2095 26.3271C79.0941 24.4734 85.4514 31.4562 83.3171 38.528C82.8613 40.0385 82.9317 40.2952 84.1887 41.711C89.727 47.9496 85.6779 57.9991 77.6105 58.0374C76.3002 58.0435 75.6294 59.5491 76.5246 60.4743C77.6265 61.6135 82.0626 60.5403 84.8099 58.4699L85.6127 57.8649L86.0751 58.9299C87.9312 63.2052 86.025 68.9637 82.0676 71.0365C80.5581 71.8272 80.4656 72.0485 80.5687 74.6168C80.7891 80.1079 78.1655 84.111 73.0496 86.0897C72.1954 86.4199 72.0075 86.591 71.392 87.5983C66.8467 95.0379 56.1544 94.5373 52.4762 86.7126C51.253 84.1101 51.3273 86.0676 51.3273 56.5131V29.7397L51.6966 28.9311C52.3941 27.4036 54.1939 26.062 55.5514 26.0579C57.0532 26.0532 57.9267 24.5453 57.0294 23.5058C56.4075 22.7851 54.3436 22.9935 52.5561 23.9573C51.9759 24.2702 51.4376 24.5553 51.3597 24.5913C51.1115 24.7052 51.303 10.7702 51.5582 10.1537C52.7155 7.35744 55.2079 6.42253 58.9994 7.36229ZM76.9722 32.7539C76.3788 33.0653 76.1573 33.6288 75.943 35.3722C75.0239 42.8428 66.3805 46.2301 60.7141 41.3403C59.1748 40.0119 57.6721 40.2658 57.6721 41.8542C57.6721 43.3212 61.3113 45.8021 64.3323 46.3946L65.4511 46.614L65.6384 47.4531C66.4325 51.0089 69.6102 53.9427 73.2539 54.4837C74.8423 54.7195 75.4269 54.5171 75.7582 53.6162C76.1743 52.4849 75.5206 51.8179 73.7404 51.5573C71.6002 51.244 69.8564 49.9617 68.8901 47.9904C68.2573 46.6998 68.2864 46.633 69.6228 46.2979C73.9062 45.2237 77.4581 41.6253 78.5363 37.267C79.144 34.8105 78.9076 32.7045 78.0242 32.7045C77.9364 32.7045 77.7604 32.665 77.6331 32.6165C77.5057 32.5681 77.2084 32.63 76.9722 32.7539ZM24.3689 34.5603C23.8901 34.9873 23.8637 35.0836 23.8861 36.3288C23.9804 41.5721 27.8383 46.4596 32.9494 47.8109C34.5189 48.2257 34.4107 48.1359 34.2096 48.8608C33.5971 51.0688 31.4611 52.8017 28.8879 53.1783C26.6997 53.4987 26.0583 55.6571 28.0014 56.1613C31.2297 56.9988 36.1584 53.1724 37.1583 49.052L37.3556 48.2392L38.7351 47.9188C42.1508 47.1252 45.506 44.5053 45.0332 43.0008C44.6336 41.7291 43.4284 41.7137 42.0559 42.9623C36.4344 48.0775 27.5981 44.2848 26.7416 36.3894C26.5205 34.3514 25.4923 33.5588 24.3689 34.5603ZM55.2943 56.6243C53.6502 57.5005 54.6249 59.2266 56.9135 59.4918C61.6802 60.0443 65.3054 64.1495 65.3179 69.0089L65.3205 70.0046L64.397 70.4729C60.705 72.3447 58.0168 76.4933 57.7247 80.7698C57.5168 83.8163 60.2202 84.3165 60.531 81.2891C61.0609 76.1312 64.3387 72.681 69.2226 72.1404C71.9428 71.8392 72.0431 69.1811 69.3344 69.1811H68.2914L68.2125 68.5971C67.8909 66.2186 67.7435 65.5293 67.3194 64.4194C65.9656 60.8775 63.1805 58.1867 59.68 57.0392C58.1174 56.527 55.875 56.3149 55.2943 56.6243ZM36.3566 59.9256C31.3554 61.05 27.3978 65.7598 26.9605 71.1077L26.8529 72.4228L25.8596 72.3822C24.2757 72.3177 23.4474 73.1879 23.9875 74.3493C24.2886 74.9967 24.8166 75.2254 26.5301 75.4506C30.8935 76.0243 34.5529 80.2234 34.5529 84.6568C34.5529 85.6789 35.3564 86.5256 36.1673 86.3579C37.171 86.1504 37.4277 85.6985 37.3736 84.234C37.2151 79.9381 34.4208 75.533 30.6545 73.6415C29.7888 73.2068 29.7814 73.1849 29.8568 71.3382C30.0435 66.7763 34.4399 62.5609 39.0368 62.5357C40.2787 62.529 40.9458 60.9079 40.0609 60.0483C39.5814 59.5829 38.0994 59.5337 36.3566 59.9256Z" fill="black"/>
</svg>
