<svg width="100" height="100" viewBox="0 0 100 100" fill="none" xmlns="http://www.w3.org/2000/svg">
<path fill-rule="evenodd" clip-rule="evenodd" d="M15.563 4.32875C14.2617 4.74678 13.2016 5.52579 12.3042 6.72337C10.9772 8.49414 11.0277 7.90157 11.0277 21.7339V34.0865L11.4357 35.1079C12.5608 37.9253 14.7115 39.2109 18.4525 39.3019L20.9644 39.363L20.918 44.6917L20.8714 50.0202L19.6151 50.5143C13.4786 52.9281 9.98406 59.9868 11.7776 66.3453L12.1035 67.5005L10.9503 68.745C8.47815 71.413 6.9035 74.6087 6.27596 78.2323C5.89733 80.4184 5.91209 88.4869 6.29705 89.8183C7.28565 93.2365 9.69895 94.8251 14.0657 94.9326C17.5984 95.0195 18.3226 94.7168 18.3226 93.1535C18.3226 91.7307 17.8721 91.5082 14.7788 91.4033C9.78508 91.2343 9.45074 90.7253 9.581 83.4863C9.69051 77.4023 10.3933 74.9387 12.8885 71.8923L13.8041 70.7746L14.9005 71.9163C20.2929 77.532 28.723 77.5635 34.1505 71.988L35.3396 70.7664L36.2468 71.8883C38.8795 75.1443 39.6385 78.0505 39.5589 84.5671L39.5042 89.0334L39.0326 89.7534C38.1815 91.053 37.1648 91.4058 34.2707 91.4058H31.8307L31.3169 91.9253C30.4142 92.838 30.6834 94.291 31.8449 94.7774C32.9835 95.2543 37.5673 94.9518 38.9106 94.3112C42.5407 92.5803 43.171 90.944 43.0649 83.5299C42.9566 75.9756 41.9538 72.8713 38.3532 68.9467L37.0263 67.5005L37.3689 66.3453C39.3341 59.7154 35.0649 52.0092 28.3875 50.1339C27.5907 49.9102 26.9579 49.6743 26.9812 49.6098C27.0046 49.5453 29.2268 47.2057 31.9195 44.4111L36.8151 39.3296H50.4893H64.1635L69.0605 44.4127C74.6287 50.1924 74.2671 49.7347 73.3938 49.8988C66.4262 51.2078 61.6339 59.2791 63.6286 66.3453L63.9549 67.5005L62.6279 68.9467C58.8678 73.0453 57.8164 76.5412 57.9056 84.6492L57.9613 89.7173L58.5336 90.9001C59.4758 92.8474 61.3602 94.3357 63.4604 94.7911C63.9941 94.9068 68.8435 94.9537 76.9478 94.9217L89.6019 94.8716L90.7661 94.3139C94.2636 92.6384 94.9632 90.967 94.9632 84.2874C94.9632 76.3983 93.8145 72.7942 90.0058 68.7333L88.8276 67.4771L89.1781 66.3385C91.0792 60.1622 87.5006 52.9329 81.3402 50.505L80.1097 50.0202L80.0631 44.6924L80.0167 39.3646L82.3527 39.3026C86.6862 39.1878 89.2468 37.0205 89.4739 33.2756C89.6432 30.4818 86.402 29.9874 86.0509 32.7535C85.7366 35.23 84.9713 35.6594 80.6654 35.7749L77.354 35.8638L76.93 36.3625L76.5062 36.8613V41.8279C76.5062 44.5595 76.447 46.7856 76.3744 46.7747C76.3018 46.7639 73.9881 44.4043 71.2328 41.5314C68.4774 38.6583 66.0094 36.1878 65.7484 36.0414C65.1252 35.6916 35.9644 35.634 35.3178 35.9811C35.1067 36.0945 32.5844 38.5938 29.7127 41.5353L24.4915 46.8833L24.4832 41.8723L24.4749 36.8613L24.0511 36.3625L23.6273 35.8638L20.1263 35.7749C14.1636 35.6235 14.6312 36.8257 14.6312 21.6451C14.6312 8.34431 14.5707 8.97988 15.9202 8.07699L16.627 7.60404H50.3148H84.0027L84.6322 8.0402C85.8449 8.88053 85.9005 9.10305 85.9984 13.5286L86.0863 17.4983L86.6604 18.0164C88.5864 19.7552 89.6894 18.1943 89.6854 13.7359C89.6801 8.07024 88.6279 5.7341 85.5065 4.45885L84.5042 4.04935L50.5785 4.01398C17.2616 3.97915 16.6332 3.98484 15.563 4.32875ZM24.2464 14.1932C23.3586 15.0909 23.5621 16.5034 24.6604 17.0654C25.2239 17.3537 30.8368 17.3761 31.386 17.092C32.4958 16.5181 32.7337 15.1275 31.8713 14.2554L31.3575 13.7359H28.028H24.6987L24.2464 14.1932ZM41.8638 14.2554C41.0107 15.1179 41.1888 16.4801 42.2253 17.0222C43.0174 17.4363 75.2084 17.4269 76.0013 17.0122C77.0806 16.4479 77.2336 14.9759 76.2961 14.1783L75.7762 13.7359H59.0768H42.3776L41.8638 14.2554ZM86.6628 23.4944C86.1766 23.9337 86.0944 24.1245 86.1111 24.7734C86.1713 27.0963 89.514 27.0555 89.514 24.7318C89.514 23.1585 87.8392 22.4317 86.6628 23.4944ZM24.6882 24.4901C23.9035 24.8347 23.4992 25.7866 23.7766 26.6364C24.1789 27.869 22.0344 27.7769 50.3299 27.7769H75.9309L76.3747 27.3283C77.2726 26.4202 77.0304 24.9587 75.9029 24.4824C74.9881 24.096 25.5683 24.1033 24.6882 24.4901ZM27.9023 53.711C32.2986 55.2733 35.0387 60.1503 34.0802 64.7067C32.4656 72.3818 23.1923 75.1719 17.7053 69.6333C10.4741 62.3345 18.2039 50.2644 27.9023 53.711ZM79.7581 53.7377C86.431 56.2487 88.2559 64.7076 83.2066 69.7222C75.5322 77.3436 63.0544 68.396 67.7157 58.6138C69.8386 54.1587 75.1557 52.0058 79.7581 53.7377ZM69.0425 73.8959C74.423 77.507 81.3838 76.7097 86.0211 71.9512L87.1845 70.7573L88.2004 72.0615C90.6879 75.2551 91.2966 77.4266 91.4024 83.4863C91.5033 89.2565 91.3502 89.8968 89.6302 90.8932L88.8988 91.3169L76.6053 91.366L64.3119 91.4152L63.3688 90.9487C62.7383 90.6367 62.2686 90.2416 61.9513 89.7566L61.4769 89.0313V83.9534C61.4769 77.3923 62.0615 75.232 64.742 71.8883L65.6415 70.7664L66.8307 71.988C67.4847 72.6598 68.48 73.5184 69.0425 73.8959ZM23.4067 91.8994C22.0079 93.1632 23.4577 95.4974 25.2129 94.8073C26.9325 94.1312 26.4117 91.4058 24.5628 91.4058C24.1447 91.4058 23.7815 91.5608 23.4067 91.8994Z" fill="black"/>
</svg>
