<svg width="100" height="100" viewBox="0 0 100 100" fill="none" xmlns="http://www.w3.org/2000/svg">
<path fill-rule="evenodd" clip-rule="evenodd" d="M1.25674 19.1094C-0.00373592 19.663 0.0917223 18.0683 0.0271074 39.6603C-0.0367267 61.0428 -0.0857247 60.078 1.08906 60.6173C1.41311 60.766 3.7982 60.8372 8.46238 60.8372C16.3897 60.8372 16.0994 60.9017 16.6915 59.0088L17.012 57.9841L20.4565 61.4404C24.335 65.3319 29.4874 69.6135 38.5747 76.4965C45.5861 81.8072 50.7563 83.2753 54.0707 80.8969C54.5668 80.5408 54.7202 80.5231 55.526 80.7275C58.1989 81.4058 61.391 79.9672 63.2478 77.2474C63.7911 76.4514 63.8219 76.4367 64.7521 76.5266C67.4249 76.7855 70.6252 75.1858 71.9326 72.9376C72.381 72.1666 72.4835 72.1053 73.7057 71.8784C77.1297 71.2426 79.4379 68.6694 79.5513 65.362L79.6018 63.8865L81.0331 62.8617C82.8195 61.5828 82.7754 61.5793 83.2454 63.0396C83.9178 65.1287 83.6425 65.0565 91.2144 65.1281C98.4188 65.1959 98.9424 65.1328 99.5542 64.1218C100.145 63.1452 100.15 25.0943 99.56 24.1183C98.943 23.0987 98.355 23.0121 93.6805 23.2533C80.8727 23.9137 70.5376 26.7921 70.9085 29.5956L71.0047 30.3226L69.9998 29.9216C69.4471 29.7011 68.468 29.3198 67.8238 29.0743C67.1796 28.829 64.4318 27.6807 61.7176 26.5223C52.061 22.402 48.4582 22.3855 42.628 26.4348L41.2479 27.3933H32.9983H24.7487L24.8814 26.1431C25.1442 23.6719 23.6937 22.527 18.6165 21.1977C13.9986 19.9884 2.42528 18.5963 1.25674 19.1094ZM7.88631 23.6584C13.0942 24.2419 17.618 25.0868 19.6648 25.8584L20.699 26.2481L20.5754 27.1651C19.8246 32.7352 16.9322 44.1235 13.2347 56.0665L13.0368 56.7059H8.56194H4.08731V39.9839C4.08731 30.7868 4.15309 23.2627 4.23371 23.2637C4.31434 23.2647 5.95782 23.4422 7.88631 23.6584ZM95.8366 44.1152V60.8372H91.3674H86.8982L86.076 58.2306C84.021 51.7151 79.3363 38.7611 77.1675 33.5969C76.4874 31.9776 75.9957 30.5954 76.0746 30.5252C77.198 29.5244 88.9839 27.5084 94.2261 27.4204L95.8366 27.3933V44.1152ZM53.5349 27.912C54.3075 28.0891 55.7304 28.5642 56.6967 28.9675C57.663 29.371 60.3423 30.4959 62.6507 31.4673C64.959 32.4386 68.3649 33.8003 70.2194 34.4934L73.5911 35.7533L74.7741 38.803C77.1102 44.8264 81.5346 57.4324 81.3624 57.5747C81.3244 57.6059 80.4783 58.1796 79.4824 58.8497L77.6712 60.0676L77.1455 59.4196C75.0602 56.8497 71.0848 53.2254 63.9195 47.3623C58.6785 43.0738 56.5089 41.2357 54.8459 39.6751C52.4628 37.4388 52.5571 37.4536 49.241 38.8036C47.912 39.3446 46.6303 39.7911 46.3925 39.7959C45.6275 39.8112 44.4673 40.331 44.1437 40.8033C42.1012 43.7837 39.4746 45.0914 36.8683 44.4253C35.3078 44.0265 35.0591 43.7316 35.203 42.4499C35.4615 40.1464 37.6498 36.6195 40.6822 33.6188C45.9466 28.4094 49.2689 26.9343 53.5349 27.912ZM36.1976 32.1639C29.1538 40.8537 29.3006 47.425 36.5662 48.6581C39.9818 49.2377 43.0882 48.0955 45.8483 45.2449C46.7331 44.3309 47.2955 43.9128 47.7574 43.8255C48.1176 43.7574 49.1241 43.3946 49.994 43.0195L51.5756 42.3372L52.5744 43.2823C53.7129 44.3594 56.2177 46.4646 62.3315 51.4823C74.9583 61.8456 77.4932 65.2583 74.1088 67.3379C72.5196 68.3145 71.9605 67.8933 64.3521 59.9883C59.1035 54.535 58.7677 54.281 57.5072 54.8118C56.3167 55.3131 55.8889 56.6788 56.5753 57.7879C56.7762 58.1125 59.565 61.0697 62.7727 64.3594C65.9802 67.6493 68.5757 70.438 68.5404 70.5564C68.3338 71.2505 67.1255 72.0285 65.8976 72.2585C64.3047 72.5568 64.1048 72.4061 58.4286 66.6291C52.2371 60.3275 51.5332 59.9151 50.3379 61.8903C49.4517 63.3551 49.6125 63.5973 55.4314 69.5629L60.16 74.4107L59.6259 75.1164C57.5018 77.9225 56.7896 77.5936 49.9356 70.639C43.9723 64.5882 43.8339 64.494 42.4867 65.5619C40.7989 66.8998 41.2233 67.7068 46.446 73.0903C48.8377 75.5557 50.7402 77.6273 50.6743 77.6939C50.4831 77.8865 48.2158 77.4417 46.9647 76.9662C42.6331 75.3202 19.5615 56.1381 18.5687 53.3572C18.5345 53.2618 19.0918 51.1308 19.8071 48.6217C21.2296 43.6313 22.9297 36.9553 23.6223 33.6394L24.064 31.5246H30.3899H36.7159L36.1976 32.1639Z" fill="black"/>
</svg>
