<svg width="100" height="100" viewBox="0 0 100 100" fill="none" xmlns="http://www.w3.org/2000/svg">
<path fill-rule="evenodd" clip-rule="evenodd" d="M49.8331 5.19204C49.0644 5.6329 49.0535 5.71675 49.0477 11.2307C49.0416 16.9963 49.0491 17.0397 50.1038 17.3746C51.6365 17.8609 51.8546 17.0805 51.8546 11.1102V6.00731L51.3408 5.4935C50.7933 4.94595 50.3995 4.8672 49.8331 5.19204ZM27.3252 11.9151C26.5282 12.7121 26.5133 12.6765 29.8046 17.8432C32.8145 22.5684 33.1937 22.9199 34.321 22.0333C35.3677 21.2098 35.3354 21.1241 32.0372 15.9688C28.9092 11.0798 28.5067 10.7335 27.3252 11.9151ZM72.717 11.9586C72.3196 12.0614 66.4445 20.8561 66.4445 21.3483C66.4445 21.7955 67.361 22.7336 67.7982 22.7336C68.4543 22.7336 68.9907 22.0829 71.7332 17.959C74.8679 13.2458 75.0504 12.7313 73.8146 12.0923C73.3005 11.8264 73.2511 11.8204 72.717 11.9586ZM48.6906 24.4977C29.2606 26.1125 20.41 49.5733 33.9383 63.6027C37.2342 67.0208 38.4909 70.3213 38.4942 75.5692C38.4951 77.0087 38.535 77.2019 38.902 77.5468L39.3089 77.9289H50.473H61.637L62.0487 77.4907C62.4247 77.0904 62.472 76.8356 62.5931 74.5464C62.8736 69.2458 63.5907 67.403 66.7152 63.9504C69.8523 60.4839 71.3416 58.0468 72.5058 54.4755C77.5345 39.0466 64.9059 23.1502 48.6906 24.4977ZM13.9019 26.6182C12.9627 26.9901 12.6913 28.1906 13.4025 28.8272C14.1861 29.5288 22.3009 33.8078 22.8475 33.8078C23.9207 33.8078 24.4999 32.3993 23.7736 31.5561C23.464 31.1969 15.3329 26.7161 14.6769 26.5431C14.4835 26.4923 14.1348 26.5261 13.9019 26.6182ZM86.132 26.5553C85.4048 26.8282 77.384 31.2407 77.088 31.5308C76.2698 32.3321 76.8971 33.8078 78.0559 33.8078C78.5806 33.8078 86.7746 29.4892 87.4943 28.8336C88.5091 27.9088 87.4124 26.0747 86.132 26.5553ZM53.6077 27.3995C69.7643 30.0197 76.4636 50.1908 64.979 61.637C61.7054 64.8995 60.2353 68.2562 59.8073 73.4465L59.6769 75.0285L50.5146 75.0741L41.3524 75.1196L41.2422 74.5687C41.1815 74.2656 41.132 73.7216 41.132 73.3597C41.132 69.455 39.2694 65.1073 36.1966 61.8393C22.5427 47.318 34.2034 24.2527 53.6077 27.3995ZM49.8331 30.4914C48.1615 31.5125 49.01 32.9859 51.3689 33.1583C59.0831 33.7224 65.5656 40.3307 65.5656 47.6309C65.5656 49.4256 66.8772 50.266 67.9713 49.172C68.415 48.7281 68.4248 48.6701 68.3318 47.0187C67.9043 39.4196 62.3924 32.7899 54.9329 30.9025C52.8488 30.3752 50.3529 30.1739 49.8331 30.4914ZM40.5167 79.6711C37.693 80.3807 36.7801 83.748 38.9055 85.6142C39.9855 86.5622 40.0432 86.5666 50.8289 86.5083L60.7896 86.4543L61.55 85.9196C63.6852 84.4188 63.6269 81.4841 61.4351 80.1262L60.5839 79.5988L50.814 79.5688C45.4405 79.5523 40.8068 79.5983 40.5167 79.6711ZM60.0812 82.5344C60.3677 82.8209 60.3463 83.1232 60.016 83.4535C59.6788 83.7905 41.5656 83.88 40.9446 83.5478C40.6176 83.3727 40.4789 82.6834 40.7219 82.4407C40.9493 82.2132 59.8514 82.3046 60.0812 82.5344ZM43.505 88.0302C43.4083 88.065 43.1097 88.142 42.8414 88.2012C40.0263 88.823 39.7175 93.1894 42.3944 94.5232L43.3104 94.9797H50.4006C56.413 94.9797 57.5902 94.9382 58.1444 94.7067C61.0165 93.507 61.1397 89.8042 58.3585 88.2775C57.9525 88.0546 44.0784 87.8236 43.505 88.0302ZM57.4856 91.1238C57.9453 91.9826 57.8034 91.9991 50.4004 91.9494C43.0508 91.9002 42.7256 91.8578 43.4048 91.0394C43.8149 90.5453 57.2191 90.6256 57.4856 91.1238Z" fill="black"/>
</svg>
