<svg width="100" height="100" viewBox="0 0 100 100" fill="none" xmlns="http://www.w3.org/2000/svg">
<path fill-rule="evenodd" clip-rule="evenodd" d="M11.5295 5.14575C9.45652 5.646 7.5723 7.26769 6.58107 9.40462L6 10.6571V40.9481V71.2391L6.68572 72.6559C7.51153 74.3625 8.57454 75.4254 10.2814 76.2512L11.5078 76.8446L24.4971 76.8975C31.6413 76.9266 37.4863 77.004 37.4863 77.0694C37.4863 77.1349 36.7641 79.1571 35.8814 81.5634L34.2764 85.9384H32.2767C27.9385 85.9384 26.4707 87.4511 26.4707 91.9217C26.4707 93.8974 26.4966 94.0444 26.9214 94.4781L27.372 94.9384H49.9707H72.5694L73.02 94.4781C73.4448 94.0444 73.4707 93.8974 73.4707 91.9217C73.4707 87.4294 72.0324 85.9384 67.6992 85.9384H65.665L64.0601 81.5634C63.1773 79.1571 62.4551 77.1349 62.4551 77.0694C62.4551 77.004 68.3046 76.9266 75.4541 76.8975L88.4531 76.8446L89.8403 76.1443C91.511 75.3009 92.5518 74.2149 93.3603 72.4721L93.9414 71.2196V40.9384V10.6571L93.3603 9.40462C92.5518 7.66162 91.511 6.57581 89.8401 5.73244L88.4527 5.03212L50.3474 5.00306C27.7639 4.98562 11.9519 5.04394 11.5295 5.14575ZM88.0451 8.16637C89.0536 8.47069 90.5745 10.0239 90.8725 11.0539C91.0425 11.6419 91.0957 17.4351 91.0957 35.382V58.9384H49.9707H8.8457V35.382C8.8457 17.4351 8.89895 11.6419 9.06895 11.0539C9.34526 10.0987 10.8821 8.4735 11.7832 8.18344C12.755 7.87069 87.01 7.854 88.0451 8.16637ZM91.0957 65.9947C91.0957 71.3651 90.4561 72.9829 88.0451 73.7104C86.9465 74.0419 12.9949 74.0419 11.8963 73.7104C9.48534 72.9829 8.8457 71.3651 8.8457 65.9947V61.9384H49.9707H91.0957V65.9947ZM48.502 63.6834C47.0277 64.158 45.5645 66.2775 45.5645 67.9384C45.5645 72.8659 52.7916 74.0308 54.1537 69.3229C55.1822 65.7679 51.9733 62.5661 48.502 63.6834ZM50.9887 66.8987C51.2729 67.1887 51.4395 67.5731 51.4395 67.9384C51.4395 68.3036 51.2729 68.688 50.9887 68.9781C50.0781 69.9082 48.502 69.2492 48.502 67.9384C48.502 67.1676 49.2159 66.4384 49.9707 66.4384C50.3283 66.4384 50.7047 66.6084 50.9887 66.8987ZM60.8501 81.3133C61.7328 83.7197 62.4551 85.7447 62.4551 85.8133C62.4551 85.8821 56.8371 85.9384 49.9707 85.9384C43.1043 85.9384 37.4863 85.8821 37.4863 85.8133C37.4863 85.7447 38.2086 83.7197 39.0913 81.3133L40.6963 76.9384H49.9707H59.2451L60.8501 81.3133ZM70.0825 89.3987C70.4526 89.7765 70.5332 90.0446 70.5332 90.8987V91.9384H49.9707H29.4082V90.8987C29.4082 90.0446 29.4888 89.7765 29.8589 89.3987L30.3095 88.9384H49.9707H69.6319L70.0825 89.3987Z" fill="black"/>
</svg>
