<svg width="259" height="285" viewBox="0 0 259 285" fill="#EBE9FE" xmlns="http://www.w3.org/2000/svg">
<path d="M141.228 1.74988L130.73 1H122.481C110.779 3.13058 104.53 5.22581 99.9846 27.9958L103.734 44.4932C105.165 50.9514 104.686 54.6597 96.9851 61.7406C89.9793 65.5453 83.3768 67.1975 70.7392 69.9893C61.8902 71.7688 59.4325 76.0989 58.741 88.7364C59.9414 98.7163 57.5018 102.296 48.9925 105.984C41.5235 108.944 35.426 108.537 24.2464 107.483C12.3734 106.54 6.53391 107.262 3.24965 119.482L1 140.478V160.725C2.24767 169.443 3.42514 174.06 14.4979 177.223H22.7466L36.2445 175.723C51.3409 176.67 58.7381 178.61 57.9911 200.469C58.6993 209.785 62.8593 214.47 90.2361 219.966C100.414 224.443 104.457 228.143 102.984 240.963C100.299 248.791 99.5635 252.625 99.9846 258.21C103.24 278.14 109.229 284.409 129.98 283.706C144.162 281.729 152.354 281.544 159.225 251.461C159.107 244.497 158.216 240.542 156.226 233.464C156.64 221.256 159.115 215.865 171.973 211.717L187.721 207.968C197.376 205.46 200.425 202.242 201.219 192.97V185.471C202.632 175.821 204.621 171.295 216.966 169.724L235.714 170.474H243.212C250.645 169.294 253.575 167.31 256.71 161.475L258.21 122.481C257.191 113.883 255.627 109.633 244.712 106.734L228.215 108.233H218.466C208.935 106.096 204.694 103.882 201.969 95.4853L201.219 90.2361C202.844 75.7382 198.477 70.3564 178.722 66.9898C166.304 64.1364 160.299 61.3614 156.226 48.2427L159.975 30.2455V23.4965C157.984 11.4227 154.062 6.54131 141.228 1.74988Z" stroke="black"/>
</svg>
