<svg width="229" height="191" viewBox="0 0 229 191" fill="#7A6FF6" xmlns="http://www.w3.org/2000/svg">
<path d="M1 189.635V150.641C7.04701 149.395 12.8217 150.317 17.4974 146.891C28.7279 137.256 31.1106 126.16 30.9953 118.396C30.9016 111.682 30.287 107.753 27.9958 100.398C29.1509 88.7076 30.5104 82.5836 44.4932 78.6517C53.2045 76.9684 57.9765 75.6996 66.2399 72.6527C70.156 70.7096 72.1533 69.197 72.9888 60.6545C73.3477 57.6446 73.3312 55.8288 72.9888 52.4058C73.0489 49.7435 73.3546 48.2637 74.4886 45.6569C77.4397 39.6057 80.4466 37.5222 88.7364 36.6583L115.732 37.4082C122.479 36.4748 125.347 34.461 128.48 27.6597C129.959 18.8227 130.113 12.8013 129.98 1.41375L168.224 2.16364C169.038 4.60506 169.306 6.04307 168.974 8.91259L165.974 20.9107C165.221 23.5996 165.091 25.0739 165.224 27.6597C167.98 35.5929 169.871 39.836 178.722 44.1571C185.255 45.9273 189.059 46.7094 197.469 45.6569C203.919 44.5302 207.336 42.2427 213.217 35.1585C215.753 30.3549 216.679 27.0955 214.717 17.1613C213.901 13.8153 213.238 11.5263 211.717 6.66294C211.868 4.23536 212.225 3.01038 213.217 1H228.215V122.145C225.607 147.909 221.01 155.177 211.717 165.638C198.293 180.394 190.893 185.157 181.443 188.091C177.684 189.258 173.734 189.635 169.798 189.635H1Z" stroke="black"/>
</svg>
