<svg width="225" height="228" viewBox="0 0 225 228" fill="#4EDBE8" xmlns="http://www.w3.org/2000/svg">
<path d="M13.0135 46.3512H1V161.241C2.88544 178.909 5.76424 186.931 13.7643 198.278C26.9367 213.416 35.2062 220.637 47.2934 225.044C51.3867 226.536 55.7654 227 60.1222 227H224V187.696C210.358 188.307 204.046 185.956 196.97 173.334C194.869 169.548 194.004 166.956 194.717 158.973C194.946 153.615 195.415 150.52 197.721 144.612V138.565C197.098 132.515 197.293 129.105 184.956 123.448L176.697 121.181C162.43 118.453 154.643 116.759 152.67 104.552V98.505C152.378 93.6638 151.921 91.1532 150.418 87.1672C147.4 82.0075 144.297 79.7008 130.896 78.8528L118.882 80.3645H109.121C101.003 79.0253 98.0755 76.0787 95.6061 66.7592V44.8395H58.8148C57.7715 43.6854 57.439 42.3943 57.3131 38.7926L60.3165 28.2107C60.9182 25.6321 61.1429 24.0521 61.0673 20.6522L58.064 11.5819C53.4612 5.21617 49.6902 2.73501 40.0438 1H31.0337C21.2505 3.23448 17.8221 5.77204 13.7643 11.5819C11.965 16.1069 11.4186 19.0423 11.5118 25.1873C12.8222 31.2705 13.5407 34.6296 14.5152 39.5485C15.227 42.6676 14.5639 44.038 13.0135 46.3512Z" stroke="black"/>
</svg>
