<svg width="227" height="187" viewBox="0 0 227 187" fill="#EBE9FE" xmlns="http://www.w3.org/2000/svg">
<path d="M59.0848 1.01834H226V44.8493H217.725C201.765 48.2334 195.157 56.7357 195.157 72.3365L198.918 88.6803C200.805 96.0109 198.166 100.567 189.138 107.996L177.102 110.967L164.313 113.939C158.004 116.186 155.489 118.696 153.782 126.568V139.94C151.332 146.228 148.043 148.968 137.232 151.827H125.195C122.017 151.494 120.388 151.146 117.672 150.341H110.902C102.847 152.539 99.97 155.08 98.1133 162.227C96.8286 170.244 96.348 175.312 95.8565 185.257H58.9952C57.848 182.975 57.5641 181.558 58.2429 178.571C60.035 172.89 60.84 169.383 61.252 161.484C57.6784 148.413 53.0195 144.257 40.1883 142.169H31.1611C18.0591 145.585 11.7872 148.654 11.602 165.942L14.6111 180.057C15.0465 182.695 14.6868 183.99 13.1065 186H1.07016L1.07029 65.6505C1.07029 65.6505 -1.18666 47.078 19.8773 23.3053C36.1441 4.94659 49.2701 1.65166 54.405 1.10306C55.9594 0.937001 57.5216 1.01834 59.0848 1.01834Z" stroke="black"/>
</svg>
