<svg width="226" height="226" viewBox="0 0 226 226" fill="#EBE9FE" xmlns="http://www.w3.org/2000/svg">
<path d="M1 47.9528V1.74528L156.756 1.03626C162.033 1.01224 167.307 1.77759 172.273 3.5621C203.534 14.7956 217.214 28.667 224.291 67.0037C224.788 69.6961 225 72.4325 225 75.1704V179.868H210.116C209.317 181.783 209.003 183.107 208.628 185.83C215.293 206.99 214.373 216.185 197.465 223.84C189.044 225.56 184.31 225.413 175.884 223.094C162.945 215.039 159.288 208.427 166.209 188.811C166.261 186.013 166.2 184.415 165.465 181.359L127.512 180.613V167.943C126.575 160.153 124.536 156.481 114.116 153.038C106.596 153.22 103.455 153.625 98.4884 154.528C93.8557 154.723 91.4846 154.753 88.0698 154.528C74.4046 151.325 69.84 146.926 71.6977 130.679C69.2874 118.712 64.2082 115.624 50.8605 114.283C42.8607 112.741 38.4808 110.515 30.7674 105.34C25.8192 99.5836 25.1942 95.8171 27.7907 88.1981L30.0233 74.783V69.566C28.1257 57.2182 23.4874 53.2503 12.1628 48.6981L1 47.9528Z" stroke="black"/>
</svg>
