<svg width="94" height="39" viewBox="0 0 94 39" fill="none" xmlns="http://www.w3.org/2000/svg">
<path d="M0.882138 30V0.90909H7.03271V24.929H19.5043V30H0.882138Z" fill="white"/>
<path d="M33.3218 30.4261C31.1153 30.4261 29.2072 29.9574 27.5973 29.0199C25.997 28.0729 24.7612 26.7566 23.89 25.071C23.0187 23.3759 22.5831 21.411 22.5831 19.1761C22.5831 16.9223 23.0187 14.9527 23.89 13.267C24.7612 11.572 25.997 10.2557 27.5973 9.31818C29.2072 8.37121 31.1153 7.89773 33.3218 7.89773C35.5282 7.89773 37.4316 8.37121 39.032 9.31818C40.6418 10.2557 41.8824 11.572 42.7536 13.267C43.6248 14.9527 44.0604 16.9223 44.0604 19.1761C44.0604 21.411 43.6248 23.3759 42.7536 25.071C41.8824 26.7566 40.6418 28.0729 39.032 29.0199C37.4316 29.9574 35.5282 30.4261 33.3218 30.4261ZM33.3502 25.7386C34.354 25.7386 35.192 25.4545 35.8644 24.8864C36.5367 24.3087 37.0434 23.5227 37.3843 22.5284C37.7346 21.5341 37.9098 20.4025 37.9098 19.1335C37.9098 17.8646 37.7346 16.733 37.3843 15.7386C37.0434 14.7443 36.5367 13.9583 35.8644 13.3807C35.192 12.803 34.354 12.5142 33.3502 12.5142C32.3369 12.5142 31.4846 12.803 30.7934 13.3807C30.1115 13.9583 29.5954 14.7443 29.2451 15.7386C28.9042 16.733 28.7337 17.8646 28.7337 19.1335C28.7337 20.4025 28.9042 21.5341 29.2451 22.5284C29.5954 23.5227 30.1115 24.3087 30.7934 24.8864C31.4846 25.4545 32.3369 25.7386 33.3502 25.7386ZM57.8246 38.6364C55.8644 38.6364 54.1835 38.3665 52.782 37.8267C51.39 37.2964 50.282 36.572 49.4581 35.6534C48.6343 34.7348 48.0992 33.7027 47.853 32.5568L53.4496 31.804C53.6201 32.2396 53.89 32.6468 54.2593 33.0256C54.6286 33.4044 55.1163 33.7074 55.7223 33.9347C56.3379 34.1714 57.086 34.2898 57.9667 34.2898C59.2829 34.2898 60.3672 33.9678 61.2195 33.3239C62.0812 32.6894 62.5121 31.6241 62.5121 30.1278V26.1364H62.2564C61.9913 26.7424 61.5936 27.3153 61.0632 27.8551C60.5329 28.3949 59.8511 28.8352 59.0178 29.1761C58.1845 29.517 57.1901 29.6875 56.0348 29.6875C54.3966 29.6875 52.9051 29.3087 51.5604 28.5511C50.2252 27.7841 49.1598 26.6146 48.3644 25.0426C47.5784 23.4612 47.1854 21.4631 47.1854 19.0483C47.1854 16.5767 47.5879 14.5123 48.3928 12.8551C49.1977 11.1979 50.2678 9.95739 51.603 9.13352C52.9477 8.30966 54.4203 7.89773 56.0206 7.89773C57.2422 7.89773 58.265 8.10606 59.0888 8.52273C59.9127 8.92992 60.5756 9.44129 61.0775 10.0568C61.5888 10.6629 61.9818 11.2595 62.2564 11.8466H62.4837V8.18182H68.4922V30.2131C68.4922 32.0691 68.0377 33.6222 67.1286 34.8722C66.2195 36.1222 64.96 37.0597 63.3502 37.6847C61.7498 38.3191 59.9079 38.6364 57.8246 38.6364ZM57.9525 25.142C58.9278 25.142 59.7517 24.9006 60.424 24.4176C61.1059 23.9252 61.6267 23.2244 61.9865 22.3153C62.3559 21.3968 62.5405 20.2983 62.5405 19.0199C62.5405 17.7415 62.3606 16.6335 62.0007 15.696C61.6409 14.7491 61.1201 14.0152 60.4382 13.4943C59.7564 12.9735 58.9278 12.7131 57.9525 12.7131C56.9581 12.7131 56.1201 12.983 55.4382 13.5227C54.7564 14.053 54.2403 14.7917 53.89 15.7386C53.5396 16.6856 53.3644 17.7794 53.3644 19.0199C53.3644 20.2794 53.5396 21.3684 53.89 22.2869C54.2498 23.196 54.7659 23.9015 55.4382 24.4034C56.1201 24.8958 56.9581 25.142 57.9525 25.142ZM83.1655 30.4261C80.9591 30.4261 79.0509 29.9574 77.4411 29.0199C75.8407 28.0729 74.6049 26.7566 73.7337 25.071C72.8625 23.3759 72.4269 21.411 72.4269 19.1761C72.4269 16.9223 72.8625 14.9527 73.7337 13.267C74.6049 11.572 75.8407 10.2557 77.4411 9.31818C79.0509 8.37121 80.9591 7.89773 83.1655 7.89773C85.372 7.89773 87.2754 8.37121 88.8757 9.31818C90.4856 10.2557 91.7261 11.572 92.5973 13.267C93.4686 14.9527 93.9042 16.9223 93.9042 19.1761C93.9042 21.411 93.4686 23.3759 92.5973 25.071C91.7261 26.7566 90.4856 28.0729 88.8757 29.0199C87.2754 29.9574 85.372 30.4261 83.1655 30.4261ZM83.1939 25.7386C84.1977 25.7386 85.0358 25.4545 85.7081 24.8864C86.3805 24.3087 86.8871 23.5227 87.228 22.5284C87.5784 21.5341 87.7536 20.4025 87.7536 19.1335C87.7536 17.8646 87.5784 16.733 87.228 15.7386C86.8871 14.7443 86.3805 13.9583 85.7081 13.3807C85.0358 12.803 84.1977 12.5142 83.1939 12.5142C82.1807 12.5142 81.3284 12.803 80.6371 13.3807C79.9553 13.9583 79.4392 14.7443 79.0888 15.7386C78.7479 16.733 78.5775 17.8646 78.5775 19.1335C78.5775 20.4025 78.7479 21.5341 79.0888 22.5284C79.4392 23.5227 79.9553 24.3087 80.6371 24.8864C81.3284 25.4545 82.1807 25.7386 83.1939 25.7386Z" fill="black"/>
</svg>
