<svg width="157" height="64" viewBox="0 0 332 146" fill="none" xmlns="http://www.w3.org/2000/svg">
<path fill-rule="evenodd" clip-rule="evenodd" d="M58.0128 9.15156C57.9437 9.22089 56.5545 9.36845 54.9261 9.47926C53.2975 9.59037 51.8901 9.72608 51.7986 9.78089C51.2669 10.0994 41.558 10.3373 34.0367 10.2162C17.3167 9.94682 17.5389 9.93823 15.5766 10.9326C11.2092 13.1451 9.83504 16.0082 10.0205 22.5072C10.4437 37.3369 10.1195 49.3385 9.00825 59.9807C8.72584 62.6853 12.0819 64.5253 14.1396 62.794C15.2559 61.8548 15.5781 60.8334 15.8187 57.4704C15.9236 56.0038 16.067 54.4704 16.1376 54.063C16.6719 50.9768 16.9137 30.4747 16.5026 23.0998C16.15 16.7703 16.9946 16.1495 25.2298 16.687C32.8967 17.1875 50.2155 16.8278 55.9657 16.0488C56.4626 15.9815 56.4615 15.62 55.9844 22.9801C55.5967 28.9579 56.1313 30.5665 58.8894 31.7188C60.537 32.4068 63.949 32.1476 64.5536 31.288C66.0427 29.1701 71.1142 29.5253 73.5042 31.9147C78.9002 37.3103 72.0539 45.2558 65.1243 41.6401C59.2696 38.585 55.3644 41.1322 55.8528 47.6875C55.9743 49.3199 56.099 50.9889 56.1296 51.3963C56.1601 51.8037 56.2025 52.5371 56.2238 53.026C56.3515 55.94 60.6549 57.0452 62.2226 54.5664C62.7575 53.7208 62.8025 53.3068 62.6401 50.7296C62.54 49.1406 62.4976 47.8407 62.5456 47.841C62.5939 47.841 63.3667 48.1213 64.2632 48.4636C73.7946 52.1051 84.231 42.79 81.3942 33.174C81.2018 32.5221 81.0291 31.9221 81.0104 31.8406C79.6268 25.8186 71.028 21.7155 64.4721 23.9493L62.4585 24.6355L62.6348 22.5342C62.7317 21.3786 62.943 19.0331 63.1045 17.322C63.2657 15.6109 63.4435 13.6823 63.4989 13.036C63.6245 11.5779 62.9735 10.1557 61.8868 9.51393C61.1513 9.07956 58.3474 8.81733 58.0128 9.15156ZM71.305 9.48934C69.0985 10.6864 69.215 14.3703 71.4867 15.234C74.4726 16.3691 95.0471 17.2841 105.881 16.7635C117.586 16.2011 116.909 15.4414 116.455 28.6249C116.132 38.027 116.317 46.7548 116.985 53.6185C117.303 56.8849 117.806 56.5812 112.751 56.1801C105.056 55.5691 103.989 55.7158 102.403 57.6005C100.653 59.6799 100.641 61.9896 102.362 65.2281C105.247 70.6545 101.033 76.411 95.2512 74.9429C90.9075 73.8403 89.2465 69.5313 91.494 65.1961C93.6326 61.0711 92.9291 57.9175 89.4729 56.1344C88.3288 55.5442 73.0416 56.6319 71.3753 57.4221C69.2093 58.4494 69.1797 61.8062 71.3258 63.0536C72.2918 63.6151 72.4379 63.6168 77.9934 63.1321C81.1174 62.8592 84.095 62.602 84.6106 62.5602L85.5476 62.4844L84.9825 63.592C82.0387 69.3621 84.9633 77.2901 91.1668 80.3568C101.359 85.3951 112.939 75.3017 109.181 64.6557L108.475 62.6557H109.831C110.577 62.6557 113.484 62.8696 116.291 63.1312C124.224 63.8699 124.475 63.6308 123.717 56.0689C122.761 46.5234 122.497 37.1879 122.931 28.1807C123.442 17.5641 123.208 16.2461 120.252 13.039C117.454 10.004 116.222 9.82208 101.898 10.3261C94.2472 10.5954 85.5165 10.2825 77.8947 9.46593C72.9488 8.93615 72.3206 8.93822 71.305 9.48934ZM35.0276 39.8528C32.0844 40.435 29.8061 42.2274 28.4134 45.0564C27.2156 47.4893 27.1969 47.7886 26.4457 76.7932C26.0406 92.4322 25.8417 96.938 25.5664 96.7095C25.3709 96.5472 24.1861 94.6716 22.9338 92.5415C19.5123 86.7213 17.2168 84.6075 12.7922 83.2025C6.32047 81.1479 0.797614 83.4043 0.112777 88.3829C-0.23305 90.8979 -0.73653 89.8179 14.5631 119.366C16.9442 123.964 19.4151 126.027 25.591 128.572C30.0503 130.409 31.1649 131.191 31.6941 132.853C32.5891 135.664 33.5922 136.73 35.3414 136.73C38.3022 136.73 39.2611 133.991 37.5901 130.307C35.7827 126.321 34.5541 125.332 27.917 122.521C22.0317 120.027 22.7011 120.915 13.9076 103.956C9.82081 96.0737 6.47723 89.4757 6.47723 89.2932C6.47723 88.7513 10.5877 89.1092 11.9595 89.7708C13.8454 90.6802 15.6655 92.7833 17.7333 96.4417C21.581 103.249 25.901 105.864 29.8705 103.789C32.4682 102.43 32.2071 104.673 33.0051 76.8564C33.9288 44.6629 33.6861 48.2772 35.0069 47.0665C36.2835 45.897 37.2863 45.788 38.7218 46.6632C40.4222 47.6997 40.4545 47.9468 40.8385 62.8038C41.032 70.3002 41.3242 76.8646 41.4875 77.3918C42.3611 80.2116 46.0766 80.2617 47.5189 77.4729C49.3499 73.9322 54.484 75.262 54.484 79.2771C54.484 82.7527 57.6762 84.2256 60.2715 81.9471C62.9806 79.5687 66.6321 81.233 66.635 84.8478C66.638 88.4763 69.6227 89.7601 72.584 87.4066C74.1244 86.1823 75.4514 86.0463 76.9494 86.9598C78.7473 88.0555 78.7837 88.3435 78.7837 101.407C78.7837 117.753 78.5043 118.942 73.1373 125.421C68.908 130.527 67.9081 134.794 70.5529 136.448C72.6531 137.761 74.5742 136.701 75.7314 133.59C76.32 132.008 77.0315 130.839 78.2832 129.397C84.597 122.124 85.3861 118.843 85.2495 100.434L85.155 87.6929L84.3638 86.0051C82.5327 82.0993 79.1455 79.9867 74.7245 79.993C72.2818 79.9962 71.9697 79.9349 71.7181 79.4004C70.1695 76.1129 65.0025 73.6427 61.3777 74.4572L60.1251 74.7384L59.2379 73.2966C57.4237 70.3487 54.0232 68.7289 50.1367 68.9609L47.7156 69.1058L47.5512 66.6954C47.4608 65.3697 47.2779 60.4719 47.1455 55.8109L46.9043 47.3367L45.9435 45.3859C43.8105 41.0531 39.6416 38.9402 35.0276 39.8528Z" fill="black"/>
<path d="M209.96 58.4C202.92 54.48 195.76 51.88 188.48 50.6V116H164.72V50.6C157.28 51.88 150.12 54.48 143.24 58.4L135.32 41.12C141.16 37.6 147.6 34.92 154.64 33.08C161.76 31.24 169.08 30.32 176.6 30.32C184.12 30.32 191.4 31.24 198.44 33.08C205.56 34.92 212.04 37.6 217.88 41.12L209.96 58.4ZM224.619 32H248.379V97.16H288.459V116H224.619V32Z" fill="black"/>
<path d="M143.525 140V123.275H137.1V122.5H150.775V123.275H144.35V140H143.525ZM161.135 140V136.975L161.11 136.525V131.6C161.11 130.317 160.769 129.342 160.085 128.675C159.402 128.008 158.41 127.675 157.11 127.675C156.16 127.675 155.294 127.842 154.51 128.175C153.727 128.492 153.052 128.908 152.485 129.425L152.035 128.825C152.652 128.242 153.41 127.783 154.31 127.45C155.21 127.1 156.152 126.925 157.135 126.925C158.685 126.925 159.869 127.325 160.685 128.125C161.519 128.908 161.935 130.067 161.935 131.6V140H161.135ZM156.31 140.075C155.327 140.075 154.485 139.925 153.785 139.625C153.102 139.325 152.577 138.9 152.21 138.35C151.844 137.783 151.66 137.142 151.66 136.425C151.66 135.792 151.81 135.208 152.11 134.675C152.41 134.125 152.902 133.692 153.585 133.375C154.285 133.042 155.219 132.875 156.385 132.875H161.41V133.55H156.385C154.969 133.55 153.96 133.817 153.36 134.35C152.777 134.883 152.485 135.558 152.485 136.375C152.485 137.292 152.827 138.025 153.51 138.575C154.194 139.108 155.144 139.375 156.36 139.375C157.56 139.375 158.552 139.108 159.335 138.575C160.119 138.025 160.71 137.25 161.11 136.25L161.385 136.8C161.052 137.783 160.452 138.575 159.585 139.175C158.719 139.775 157.627 140.075 156.31 140.075ZM167.338 140V127.025H168.138V130.6L168.063 130.375C168.413 129.292 169.022 128.45 169.888 127.85C170.772 127.233 171.872 126.925 173.188 126.925V127.75C173.155 127.75 173.113 127.75 173.063 127.75C173.03 127.75 172.997 127.75 172.963 127.75C171.463 127.75 170.288 128.225 169.438 129.175C168.588 130.125 168.163 131.433 168.163 133.1V140H167.338ZM181.989 144.925C180.822 144.925 179.714 144.733 178.664 144.35C177.631 143.983 176.797 143.475 176.164 142.825L176.639 142.2C177.306 142.833 178.097 143.317 179.014 143.65C179.931 144 180.914 144.175 181.964 144.175C183.781 144.175 185.122 143.742 185.989 142.875C186.856 142.025 187.289 140.683 187.289 138.85V134.925L187.539 133.225L187.314 131.525V127.025H188.114V138.75C188.114 140.867 187.606 142.425 186.589 143.425C185.572 144.425 184.039 144.925 181.989 144.925ZM181.639 139.55C180.422 139.55 179.331 139.283 178.364 138.75C177.397 138.2 176.631 137.45 176.064 136.5C175.497 135.55 175.214 134.458 175.214 133.225C175.214 131.992 175.497 130.9 176.064 129.95C176.631 129 177.397 128.258 178.364 127.725C179.331 127.192 180.422 126.925 181.639 126.925C182.839 126.925 183.906 127.192 184.839 127.725C185.772 128.242 186.514 128.975 187.064 129.925C187.614 130.858 187.889 131.958 187.889 133.225C187.889 134.492 187.614 135.6 187.064 136.55C186.514 137.5 185.772 138.242 184.839 138.775C183.906 139.292 182.839 139.55 181.639 139.55ZM181.664 138.8C182.764 138.8 183.731 138.567 184.564 138.1C185.414 137.633 186.081 136.975 186.564 136.125C187.047 135.275 187.289 134.308 187.289 133.225C187.289 132.125 187.047 131.167 186.564 130.35C186.081 129.517 185.414 128.867 184.564 128.4C183.731 127.933 182.764 127.7 181.664 127.7C180.597 127.7 179.639 127.933 178.789 128.4C177.939 128.867 177.264 129.517 176.764 130.35C176.281 131.167 176.039 132.125 176.039 133.225C176.039 134.308 176.281 135.275 176.764 136.125C177.264 136.975 177.939 137.633 178.789 138.1C179.639 138.567 180.597 138.8 181.664 138.8ZM198.757 140.075C197.474 140.075 196.34 139.8 195.357 139.25C194.374 138.683 193.599 137.9 193.032 136.9C192.465 135.9 192.182 134.767 192.182 133.5C192.182 132.217 192.44 131.083 192.957 130.1C193.49 129.117 194.215 128.342 195.132 127.775C196.065 127.208 197.115 126.925 198.282 126.925C199.432 126.925 200.465 127.2 201.382 127.75C202.315 128.3 203.04 129.067 203.557 130.05C204.09 131.017 204.357 132.133 204.357 133.4C204.357 133.433 204.357 133.475 204.357 133.525C204.357 133.558 204.357 133.592 204.357 133.625H192.732V132.95H203.907L203.582 133.35C203.582 132.267 203.349 131.3 202.882 130.45C202.432 129.583 201.807 128.908 201.007 128.425C200.207 127.925 199.299 127.675 198.282 127.675C197.265 127.675 196.357 127.925 195.557 128.425C194.757 128.908 194.124 129.583 193.657 130.45C193.207 131.3 192.982 132.275 192.982 133.375V133.525C192.982 134.658 193.232 135.667 193.732 136.55C194.232 137.417 194.915 138.1 195.782 138.6C196.649 139.083 197.64 139.325 198.757 139.325C199.607 139.325 200.407 139.167 201.157 138.85C201.924 138.533 202.557 138.05 203.057 137.4L203.582 137.95C202.999 138.65 202.282 139.183 201.432 139.55C200.599 139.9 199.707 140.075 198.757 140.075ZM211.952 140.075C210.886 140.075 210.069 139.775 209.502 139.175C208.936 138.575 208.652 137.767 208.652 136.75V124.175H209.477V136.625C209.477 137.508 209.694 138.183 210.127 138.65C210.561 139.117 211.194 139.35 212.027 139.35C212.877 139.35 213.577 139.092 214.127 138.575L214.552 139.175C214.236 139.475 213.844 139.7 213.377 139.85C212.911 140 212.436 140.075 211.952 140.075ZM206.202 127.75V127.025H213.752V127.75H206.202ZM224.966 140V122.5H225.816V139.225H236.066V140H224.966ZM243.972 140.075C242.688 140.075 241.555 139.8 240.572 139.25C239.588 138.683 238.813 137.9 238.247 136.9C237.68 135.9 237.397 134.767 237.397 133.5C237.397 132.217 237.655 131.083 238.172 130.1C238.705 129.117 239.43 128.342 240.347 127.775C241.28 127.208 242.33 126.925 243.497 126.925C244.647 126.925 245.68 127.2 246.597 127.75C247.53 128.3 248.255 129.067 248.772 130.05C249.305 131.017 249.572 132.133 249.572 133.4C249.572 133.433 249.572 133.475 249.572 133.525C249.572 133.558 249.572 133.592 249.572 133.625H237.947V132.95H249.122L248.797 133.35C248.797 132.267 248.563 131.3 248.097 130.45C247.647 129.583 247.022 128.908 246.222 128.425C245.422 127.925 244.513 127.675 243.497 127.675C242.48 127.675 241.572 127.925 240.772 128.425C239.972 128.908 239.338 129.583 238.872 130.45C238.422 131.3 238.197 132.275 238.197 133.375V133.525C238.197 134.658 238.447 135.667 238.947 136.55C239.447 137.417 240.13 138.1 240.997 138.6C241.863 139.083 242.855 139.325 243.972 139.325C244.822 139.325 245.622 139.167 246.372 138.85C247.138 138.533 247.772 138.05 248.272 137.4L248.797 137.95C248.213 138.65 247.497 139.183 246.647 139.55C245.813 139.9 244.922 140.075 243.972 140.075ZM261.526 140V136.975L261.501 136.525V131.6C261.501 130.317 261.159 129.342 260.476 128.675C259.793 128.008 258.801 127.675 257.501 127.675C256.551 127.675 255.684 127.842 254.901 128.175C254.118 128.492 253.443 128.908 252.876 129.425L252.426 128.825C253.043 128.242 253.801 127.783 254.701 127.45C255.601 127.1 256.543 126.925 257.526 126.925C259.076 126.925 260.259 127.325 261.076 128.125C261.909 128.908 262.326 130.067 262.326 131.6V140H261.526ZM256.701 140.075C255.718 140.075 254.876 139.925 254.176 139.625C253.493 139.325 252.968 138.9 252.601 138.35C252.234 137.783 252.051 137.142 252.051 136.425C252.051 135.792 252.201 135.208 252.501 134.675C252.801 134.125 253.293 133.692 253.976 133.375C254.676 133.042 255.609 132.875 256.776 132.875H261.801V133.55H256.776C255.359 133.55 254.351 133.817 253.751 134.35C253.168 134.883 252.876 135.558 252.876 136.375C252.876 137.292 253.218 138.025 253.901 138.575C254.584 139.108 255.534 139.375 256.751 139.375C257.951 139.375 258.943 139.108 259.726 138.575C260.509 138.025 261.101 137.25 261.501 136.25L261.776 136.8C261.443 137.783 260.843 138.575 259.976 139.175C259.109 139.775 258.018 140.075 256.701 140.075ZM267.729 140V127.025H268.529V130.6L268.454 130.375C268.804 129.292 269.412 128.45 270.279 127.85C271.162 127.233 272.262 126.925 273.579 126.925V127.75C273.546 127.75 273.504 127.75 273.454 127.75C273.421 127.75 273.387 127.75 273.354 127.75C271.854 127.75 270.679 128.225 269.829 129.175C268.979 130.125 268.554 131.433 268.554 133.1V140H267.729ZM283.327 126.925C284.393 126.925 285.31 127.133 286.077 127.55C286.86 127.967 287.468 128.583 287.902 129.4C288.335 130.2 288.552 131.192 288.552 132.375V140H287.727V132.425C287.727 130.875 287.335 129.7 286.552 128.9C285.768 128.1 284.668 127.7 283.252 127.7C282.168 127.7 281.235 127.917 280.452 128.35C279.668 128.783 279.068 129.4 278.652 130.2C278.235 131 278.027 131.933 278.027 133V140H277.202V127.025H278.002V130.675L277.902 130.45C278.302 129.367 278.96 128.508 279.877 127.875C280.81 127.242 281.96 126.925 283.327 126.925ZM293.95 140V127.025H294.775V140H293.95ZM294.35 123.625C294.133 123.625 293.941 123.542 293.775 123.375C293.608 123.208 293.525 123.025 293.525 122.825C293.525 122.592 293.608 122.4 293.775 122.25C293.941 122.083 294.133 122 294.35 122C294.583 122 294.775 122.083 294.925 122.25C295.091 122.4 295.175 122.583 295.175 122.8C295.175 123.017 295.091 123.208 294.925 123.375C294.775 123.542 294.583 123.625 294.35 123.625ZM306.447 126.925C307.514 126.925 308.43 127.133 309.197 127.55C309.98 127.967 310.589 128.583 311.022 129.4C311.455 130.2 311.672 131.192 311.672 132.375V140H310.847V132.425C310.847 130.875 310.455 129.7 309.672 128.9C308.889 128.1 307.789 127.7 306.372 127.7C305.289 127.7 304.355 127.917 303.572 128.35C302.789 128.783 302.189 129.4 301.772 130.2C301.355 131 301.147 131.933 301.147 133V140H300.322V127.025H301.122V130.675L301.022 130.45C301.422 129.367 302.08 128.508 302.997 127.875C303.93 127.242 305.08 126.925 306.447 126.925ZM322.37 144.925C321.203 144.925 320.095 144.733 319.045 144.35C318.012 143.983 317.178 143.475 316.545 142.825L317.02 142.2C317.687 142.833 318.478 143.317 319.395 143.65C320.312 144 321.295 144.175 322.345 144.175C324.162 144.175 325.503 143.742 326.37 142.875C327.237 142.025 327.67 140.683 327.67 138.85V134.925L327.92 133.225L327.695 131.525V127.025H328.495V138.75C328.495 140.867 327.987 142.425 326.97 143.425C325.953 144.425 324.42 144.925 322.37 144.925ZM322.02 139.55C320.803 139.55 319.712 139.283 318.745 138.75C317.778 138.2 317.012 137.45 316.445 136.5C315.878 135.55 315.595 134.458 315.595 133.225C315.595 131.992 315.878 130.9 316.445 129.95C317.012 129 317.778 128.258 318.745 127.725C319.712 127.192 320.803 126.925 322.02 126.925C323.22 126.925 324.287 127.192 325.22 127.725C326.153 128.242 326.895 128.975 327.445 129.925C327.995 130.858 328.27 131.958 328.27 133.225C328.27 134.492 327.995 135.6 327.445 136.55C326.895 137.5 326.153 138.242 325.22 138.775C324.287 139.292 323.22 139.55 322.02 139.55ZM322.045 138.8C323.145 138.8 324.112 138.567 324.945 138.1C325.795 137.633 326.462 136.975 326.945 136.125C327.428 135.275 327.67 134.308 327.67 133.225C327.67 132.125 327.428 131.167 326.945 130.35C326.462 129.517 325.795 128.867 324.945 128.4C324.112 127.933 323.145 127.7 322.045 127.7C320.978 127.7 320.02 127.933 319.17 128.4C318.32 128.867 317.645 129.517 317.145 130.35C316.662 131.167 316.42 132.125 316.42 133.225C316.42 134.308 316.662 135.275 317.145 136.125C317.645 136.975 318.32 137.633 319.17 138.1C320.02 138.567 320.978 138.8 322.045 138.8Z" fill="black"/>
</svg>
