<svg width="20" height="20" viewBox="0 0 20 20" fill="none" xmlns="http://www.w3.org/2000/svg">
<path fill-rule="evenodd" clip-rule="evenodd" d="M14.3043 0.81744L13.4125 1.63464L15.435 3.60624L17.4574 5.5776L18.2504 4.7124C18.6865 4.23648 19.0434 3.59904 19.0434 3.29592C19.0434 2.56272 16.4694 0 15.7328 0C15.4378 0 14.7949 0.36792 14.3043 0.81744ZM7.10097 7.98216C4.56129 10.5245 2.48337 12.672 2.48337 12.7543C2.48337 12.8366 2.68545 12.9569 2.93241 13.0214C3.21345 13.0949 3.46137 13.4777 3.59553 14.0453C3.81945 14.9923 4.09569 15.2419 5.16729 15.4663C5.52177 15.5405 5.87985 15.8167 5.96361 16.0805C6.04713 16.3442 6.19041 16.56 6.28185 16.56C6.37329 16.56 8.55105 14.4547 11.1217 11.8817L15.7954 7.20336L13.885 5.28168C12.8343 4.22472 11.917 3.36 11.8467 3.36C11.7764 3.36 9.64089 5.44008 7.10097 7.98216ZM0.254246 17.573C0.0339259 18.2623 -0.0618342 18.9108 0.0418458 19.0145C0.199286 19.1719 2.37585 18.6058 2.70777 18.3209C2.82825 18.2174 1.01937 16.32 0.800486 16.32C0.720566 16.32 0.474566 16.884 0.254246 17.573Z" fill="black"/>
</svg>
